<?xml version="1.0" encoding="UTF-8"?>
<svg version="1.1" xmlns="http://www.w3.org/2000/svg" width="396" height="512">
<g transform="translate(-57.61519718170166,0.13422107696533203)">
  <path d="M0 0 C1.15070105 -0.00445784 2.30140209 -0.00891569 3.48697287 -0.01350862 C5.38426025 -0.01323207 5.38426025 -0.01323207 7.31987667 -0.01294994 C8.67667446 -0.01624985 10.03347127 -0.01997569 11.39026684 -0.02409142 C15.12251354 -0.03410524 18.85474416 -0.03782723 22.5870024 -0.04048073 C26.61104523 -0.04438565 30.63507535 -0.05396391 34.65911007 -0.0626936 C44.37949094 -0.08245336 54.09987285 -0.09252389 63.82026878 -0.10142139 C68.39886331 -0.10580535 72.97745668 -0.1111719 77.5560503 -0.11641026 C92.77848635 -0.13342254 108.00092169 -0.14791621 123.22336578 -0.155159 C127.17341837 -0.15706886 131.12347096 -0.1589892 135.07352352 -0.16094494 C136.5461567 -0.16167055 136.5461567 -0.16167055 138.04854005 -0.16241082 C153.94854566 -0.17070923 169.84847599 -0.19604295 185.74844874 -0.22852562 C202.07617918 -0.26160992 218.40387138 -0.27960902 234.73163551 -0.28280324 C243.89759739 -0.28496713 253.06344951 -0.29369808 262.2293787 -0.31926441 C270.03641286 -0.3409902 277.8433106 -0.34901262 285.65037156 -0.33929763 C289.63151762 -0.33475827 293.61238232 -0.33661768 297.59348965 -0.35605907 C301.24371657 -0.37373014 304.89345771 -0.3726616 308.54369008 -0.35716178 C310.47795839 -0.35367551 312.41223204 -0.36978263 314.34642893 -0.38676625 C327.03657608 -0.29361231 336.44673672 3.38711092 345.51370907 12.20453358 C353.22253212 20.35345518 356.54245926 28.4545736 356.5190239 39.59226799 C356.52137613 40.34997922 356.52372836 41.10769044 356.52615187 41.88836262 C356.53283922 44.44193313 356.53238372 46.99545272 356.53197384 49.54903126 C356.53527263 51.39255521 356.53899823 53.23607844 356.54311532 55.07960075 C356.55314174 60.15723276 356.55685315 65.23485294 356.55950463 70.31249344 C356.56340578 75.78440073 356.57298426 81.25629865 356.58171749 86.72819996 C356.6014874 99.94879825 356.61154885 113.16939731 356.62044528 126.39000669 C356.62482738 132.61432009 356.6301944 138.83863264 356.63543415 145.06294537 C356.65244707 165.75151261 356.66696635 186.44007939 356.67418289 207.12865257 C356.67465765 208.46661436 356.67513354 209.80457616 356.67561055 211.14253795 C356.67584693 211.80604274 356.67608331 212.46954753 356.67632685 213.15315853 C356.67752803 216.51476597 356.67874349 219.87637341 356.67996883 223.23798084 C356.68020898 223.90510047 356.68044913 224.57222011 356.68069656 225.25955548 C356.6885879 246.88477261 356.71201613 268.50993487 356.74452478 290.13512804 C356.77883691 313.00180592 356.7985342 335.86845987 356.80182713 358.73516506 C356.80399296 371.19870427 356.81275225 383.66216284 356.83828831 396.12567806 C356.85998473 406.73975396 356.86805089 417.35372962 356.85832153 427.96782518 C356.85377378 433.38283161 356.85569084 438.79763117 356.87508297 444.21260929 C356.89269324 449.17289364 356.89173408 454.13281989 356.87618568 459.09310793 C356.87380638 460.88456285 356.87814984 462.67604242 356.89001433 464.46745963 C356.98181118 479.24705925 354.89183872 490.38642001 344.31449032 501.26312733 C336.90233468 508.2749749 329.03765212 512.24998437 318.76960564 512.26844215 C317.61890459 512.2729 316.46820354 512.27735784 315.28263277 512.28195077 C314.01777451 512.28176641 312.75291626 512.28158205 311.44972897 512.2813921 C310.09293117 512.28469201 308.73613436 512.28841784 307.3793388 512.29253358 C303.6470921 512.3025474 299.91486147 512.30626938 296.18260324 512.30892289 C292.15856041 512.31282781 288.13453028 512.32240606 284.11049557 512.33113575 C274.3901147 512.35089552 264.66973279 512.36096605 254.94933686 512.36986354 C250.37074233 512.3742475 245.79214895 512.37961406 241.21355534 512.38485241 C225.99111928 512.4018647 210.76868395 512.41635836 195.54623985 512.42360115 C191.59618726 512.42551102 187.64613468 512.42743135 183.69608212 512.42938709 C182.71432666 512.42987083 181.73257121 512.43035457 180.72106559 512.43085297 C164.82105998 512.43915138 148.92112965 512.4644851 133.0211569 512.49696777 C116.69342646 512.53005208 100.36573426 512.54805118 84.03797013 512.55124539 C74.87200825 512.55340929 65.70615612 512.56214023 56.54022694 512.58770657 C48.73319278 512.60943235 40.92629504 512.61745477 33.11923408 512.60773978 C29.13808802 512.60320042 25.15722331 512.60505984 21.17611599 512.62450123 C17.52588907 512.64217229 13.87614792 512.64110375 10.22591556 512.62560394 C8.29164724 512.62211766 6.3573736 512.63822478 4.42317671 512.65520841 C-8.26697045 512.56205447 -17.67713108 508.88133123 -26.74410343 500.06390858 C-34.45292649 491.91498697 -37.77285363 483.81386855 -37.74941826 472.67617416 C-37.75177049 471.91846294 -37.75412272 471.16075171 -37.75654623 470.38007954 C-37.76323358 467.82650903 -37.76277809 465.27298943 -37.7623682 462.7194109 C-37.76566699 460.87588694 -37.76939259 459.03236371 -37.77350968 457.1888414 C-37.78353611 452.1112094 -37.78724751 447.03358921 -37.78989899 441.95594871 C-37.79380015 436.48404142 -37.80337863 431.01214351 -37.81211185 425.5402422 C-37.83188176 412.3196439 -37.84194321 399.09904484 -37.85083964 385.87843546 C-37.85522174 379.65412206 -37.86058876 373.42980951 -37.86582851 367.20549679 C-37.88284143 346.51692954 -37.89736071 325.82836276 -37.90457726 305.13978958 C-37.90505201 303.80182779 -37.9055279 302.463866 -37.90600492 301.12590421 C-37.90624129 300.46239941 -37.90647767 299.79889462 -37.90672121 299.11528362 C-37.9079224 295.75367618 -37.90913785 292.39206874 -37.9103632 289.03046131 C-37.91072342 288.02978186 -37.91072342 288.02978186 -37.91109092 287.00888667 C-37.91898226 265.38366954 -37.94241049 243.75850728 -37.97491914 222.13331411 C-38.00923127 199.26663623 -38.02892857 176.39998229 -38.0322215 153.53327709 C-38.03438732 141.06973788 -38.04314662 128.60627932 -38.06868267 116.14276409 C-38.0903791 105.52868819 -38.09844526 94.91471253 -38.08871589 84.30061697 C-38.08416815 78.88561055 -38.0860852 73.47081098 -38.10547733 68.05583286 C-38.1230876 63.09554852 -38.12212845 58.13562226 -38.10658004 53.17533422 C-38.10420074 51.38387931 -38.1085442 49.59239973 -38.12040869 47.80098253 C-38.21220554 33.02138291 -36.12223309 21.88202215 -25.54488468 11.00531483 C-18.13272905 3.99346725 -10.26804649 0.01845778 0 0 Z " fill="#D1DBFC" transform="translate(96.61519718170166,-0.13422107696533203)"/>
<path d="M0 0 C28.65485693 -0.09128927 57.30969668 -0.16205874 85.96467045 -0.20426132 C89.34916856 -0.20926403 92.73366638 -0.21444133 96.11816406 -0.21972656 C96.79194452 -0.2207758 97.46572497 -0.22182505 98.15992302 -0.22290608 C109.0635935 -0.24030194 119.96717946 -0.27183508 130.87079984 -0.30861118 C142.06246981 -0.34604345 153.25411089 -0.36794136 164.44584417 -0.37635398 C170.73060744 -0.38156922 177.01517911 -0.39382905 183.29988098 -0.42292023 C189.21612942 -0.45008382 195.13210745 -0.45844294 201.04841232 -0.45243073 C203.2187942 -0.45353052 205.38918518 -0.46147856 207.55951309 -0.4768219 C210.52604959 -0.49676417 213.49156916 -0.49192332 216.45812988 -0.48101807 C217.31418147 -0.49266943 218.17023305 -0.5043208 219.05222559 -0.51632524 C225.72308315 -0.45017782 230.93475475 1.35489454 236.0234375 5.74609375 C236.46945312 6.30425781 236.91546875 6.86242187 237.375 7.4375 C238.06722656 8.27087891 238.06722656 8.27087891 238.7734375 9.12109375 C241.80673447 13.76764102 242.28966491 18.02277045 242.25726891 23.46453571 C242.26077498 24.21079258 242.26428105 24.95704946 242.26789337 25.72592017 C242.27722095 28.2345344 242.27228058 30.74291717 242.26742554 33.25154114 C242.27116111 35.06506896 242.27576226 36.87859517 242.28115618 38.69211882 C242.29341304 43.68208805 242.29312256 48.67199036 242.29076743 53.66197121 C242.29035994 59.04110192 242.30139189 64.42021099 242.31088257 69.79933167 C242.3275082 80.34046488 242.33299282 90.88157572 242.33410732 101.42272095 C242.33505705 109.98947089 242.33916354 118.55621344 242.34550858 127.12296104 C242.36312515 151.40141125 242.37234678 175.67984375 242.37084763 199.95830039 C242.37076772 201.26764964 242.3706878 202.57699889 242.37060547 203.92602539 C242.37052371 205.2369699 242.37044195 206.54791441 242.37035771 207.89858451 C242.36954466 229.14836502 242.38868598 250.39807468 242.4168822 271.6478347 C242.44559315 293.45727601 242.45942349 315.26668275 242.45769465 337.07614344 C242.45703014 349.32438599 242.46254932 361.57255425 242.48405075 373.8207798 C242.50223899 384.24864056 242.50662926 394.67639337 242.4930319 405.1042631 C242.4864904 410.42573974 242.48642776 415.74700912 242.5037384 421.06846619 C242.51942179 425.93974244 242.51665394 430.81064631 242.49917014 435.68191322 C242.4960898 437.44434561 242.4997714 439.20680547 242.51089029 440.96920548 C242.61506262 458.65189611 242.61506262 458.65189611 236.25390625 466.0234375 C235.69574219 466.46945312 235.13757813 466.91546875 234.5625 467.375 C234.00691406 467.83648437 233.45132812 468.29796875 232.87890625 468.7734375 C228.75522742 471.46540248 225.12416508 472.25138356 220.23805237 472.27415466 C219.0871109 472.28412979 217.93616943 472.29410492 216.75035095 472.30438232 C215.49670242 472.305047 214.24305389 472.30571167 212.95141602 472.30639648 C211.61067241 472.31402243 210.26993316 472.32245068 208.92919922 472.33161926 C205.29490231 472.35352466 201.66068951 472.36235746 198.02633405 472.36744571 C195.75431593 472.37109309 193.48231973 472.37733504 191.21030998 472.3844471 C183.28008941 472.40892504 175.34993414 472.42199051 167.41967773 472.42553711 C160.03332401 472.4291741 152.64738535 472.45908505 145.26115853 472.50094169 C138.91365595 472.53564822 132.56629097 472.55108558 126.21869415 472.55178314 C122.43008739 472.55257566 118.64190397 472.56130228 114.85339546 472.58978081 C111.29008202 472.61596928 107.72754275 472.61816332 104.16417694 472.60212517 C102.23779435 472.59944835 100.31142678 472.62148766 98.38517761 472.64431763 C88.93995 472.56438791 88.93995 472.56438791 85.28013611 469.57167053 C84.15146873 468.29869362 84.15146873 468.29869362 83 467 C82.45214844 466.42378906 81.90429688 465.84757812 81.33984375 465.25390625 C80.87707031 464.69574219 80.41429687 464.13757813 79.9375 463.5625 C77.70263676 460.93295892 75.42360905 458.36805776 73.05078125 455.86328125 C54.79703048 436.59406096 54.79703048 436.59406096 51 429 C52.778302 428.97812622 52.778302 428.97812622 54.5925293 428.95581055 C59.00038477 428.89774062 63.40773404 428.82050816 67.81518555 428.73754883 C69.72102631 428.70434038 71.62696446 428.67629575 73.53295898 428.65356445 C76.27630015 428.61994332 79.01875222 428.56762405 81.76171875 428.51171875 C83.03543587 428.50213387 83.03543587 428.50213387 84.33488464 428.49235535 C89.01622454 428.37659183 92.20421225 428.04606015 96 425 C97.59251643 421.81496713 97.39129761 418.4667595 97 415 C95.25746655 411.76386646 94.52814056 411.17604685 91 410 C89.26188191 409.96792514 87.52230828 409.99822542 85.78515625 410.06445312 C79.81613086 410.26012558 73.85119423 410.36210981 67.87939453 410.43115234 C65.30677947 410.47680857 62.73450273 410.55105799 60.16357422 410.65478516 C39.34491516 411.45622446 39.34491516 411.45622446 33.78036499 407.37008667 C30.19142428 403.43591672 27.93563304 399.02472841 25.91911316 394.13096619 C24.5247317 390.89808924 22.68655661 388.03993798 20.8125 385.0625 C18 380.27400468 18 380.27400468 18 378 C18.9034465 377.99191315 19.80689301 377.98382629 20.73771667 377.97549438 C29.25692897 377.89751425 37.77598398 377.81021311 46.2949934 377.71247292 C50.67457608 377.6625531 55.05413515 377.61622269 59.43383789 377.578125 C63.66145791 377.54121766 67.88887828 377.49484294 72.11632729 377.44193649 C73.7281983 377.42342149 75.34011207 377.40830285 76.95204735 377.39665604 C79.21197271 377.37974388 81.47144373 377.35069749 83.73120117 377.31884766 C85.01693527 377.30552399 86.30266937 377.29220032 87.62736511 377.2784729 C90.89264752 377.00886392 93.14037465 376.58372945 96 375 C97.3461031 370.9616907 97.57269422 367.22266539 97 363 C95.12379387 360.49839182 93.76108697 359.38054348 91 358 C88.31574013 357.87751784 85.65572215 357.81430178 82.97021484 357.79467773 C82.14086929 357.78477814 81.31152374 357.77487854 80.45704651 357.76467896 C77.70837281 357.73302336 74.95968182 357.70829051 72.2109375 357.68359375 C70.30807031 357.66302773 68.40520773 357.64203135 66.50234985 357.62062073 C61.48823775 357.56536373 56.47408418 357.51597047 51.4598999 357.46777344 C46.34562478 357.41758488 41.23141006 357.36188502 36.1171875 357.30664062 C26.07817657 357.19901469 16.03911325 357.09757958 6 357 C4.87344596 354.76277495 3.74861723 352.52471005 2.62475586 350.28613281 C2.30761375 349.65675812 1.99047165 349.02738342 1.66371918 348.37893677 C-0.58422646 343.89676531 -2.60601174 339.41557986 -4.4375 334.75 C-4.81938477 333.79673828 -4.81938477 333.79673828 -5.20898438 332.82421875 C-7 328.27668042 -7 328.27668042 -7 326 C-5.78335159 325.99413376 -4.56670319 325.98826752 -3.31318665 325.98222351 C8.14926329 325.9250253 19.61152299 325.85227872 31.07377911 325.76428509 C36.96673403 325.71954633 42.85961925 325.68029778 48.75268555 325.65356445 C54.43919381 325.62756669 60.12543437 325.58718892 65.81177711 325.53681374 C67.98186731 325.52012121 70.15200384 325.50862182 72.32214928 325.50238609 C75.36047852 325.49277113 78.39811915 325.46474239 81.4362793 325.43237305 C82.33467529 325.43380814 83.23307129 325.43524323 84.15869141 325.4367218 C88.90635307 325.36512864 92.16272006 325.12092093 96 322 C97.73015495 318.53969009 97.61789902 314.77455703 97 311 C94.47163729 308.33856557 91.87615385 306.13794716 88.11408043 305.8613348 C86.95538665 305.85165597 86.95538665 305.85165597 85.77328491 305.84178162 C84.88704941 305.8319928 84.0008139 305.82220398 83.08772278 305.81211853 C82.11308578 305.80636307 81.13844879 305.8006076 80.13427734 305.79467773 C79.10986038 305.78477814 78.08544342 305.77487854 77.02998352 305.76467896 C73.63199197 305.73300245 70.23398643 305.70828222 66.8359375 305.68359375 C64.48466623 305.66302953 62.13339871 305.64203321 59.78213501 305.62062073 C53.58434066 305.56534507 47.38651265 305.51596004 41.18865967 305.46777344 C34.86793002 305.41759848 28.54724945 305.36189154 22.2265625 305.30664062 C9.81775022 305.19899187 -2.59110461 305.09756185 -15 305 C-15.79945443 302.65620957 -16.59431181 300.31101698 -17.38671875 297.96484375 C-17.72165344 296.98517639 -17.72165344 296.98517639 -18.06335449 295.98571777 C-20.16324463 289.74763902 -21.66296381 283.44603627 -23 277 C-21.78940918 276.9906543 -20.57881836 276.98130859 -19.33154297 276.97167969 C-14.8248259 276.93170052 -10.31878578 276.8659196 -5.8125 276.79248047 C-3.86499755 276.76431679 -1.91738178 276.7430794 0.03027344 276.72900391 C2.83587468 276.70751054 5.64012 276.66082802 8.4453125 276.609375 C9.31116974 276.60814636 10.17702698 276.60691772 11.06912231 276.60565186 C16.63570191 276.4718566 19.71613909 275.62630651 24 272 C29.8214164 260.3571672 25.64831537 246.01233117 26 233 C51.74 233 77.48 233 104 233 C104.33 245.21 104.66 257.42 105 270 C108.24584223 275.10583669 108.24584223 275.10583669 111.64927673 275.63491821 C112.65567703 275.63889618 113.66207733 275.64287415 114.69897461 275.64697266 C115.84373764 275.66273346 116.98850067 275.67849426 118.16795349 275.69473267 C119.40030228 275.68461151 120.63265106 275.67449036 121.90234375 275.6640625 C123.1721962 275.66884613 124.44204865 275.67362976 125.75038147 275.67855835 C128.43691133 275.68196222 131.12116803 275.67524841 133.80737305 275.65185547 C137.24219424 275.62339375 140.67505978 275.63975393 144.10980892 275.66971779 C147.39488953 275.69218537 150.67973755 275.67642843 153.96484375 275.6640625 C155.81033058 275.67924423 155.81033058 275.67924423 157.69309998 275.69473267 C164.31418751 275.62279993 164.31418751 275.62279993 170.27050781 273.0222168 C172.6235237 268.91041786 172.72922195 265.64849904 172.70703125 260.98046875 C172.72215256 260.12189774 172.73727386 259.26332672 172.75285339 258.3787384 C172.79569388 255.64805769 172.80456459 252.91848314 172.8125 250.1875 C172.83564723 248.33135088 172.86101305 246.475228 172.88867188 244.61914062 C172.95148791 240.07932946 172.98385169 235.54020733 173 231 C173.54124512 230.73517822 174.08249023 230.47035645 174.64013672 230.19750977 C175.35443848 229.84487061 176.06874023 229.49223145 176.8046875 229.12890625 C177.86405518 228.60792358 177.86405518 228.60792358 178.94482422 228.07641602 C186.36706921 224.18895128 189.58194061 218.47074219 193 211 C193.87611547 208.08417486 194.13926888 205.44516861 194.17700195 202.40600586 C194.18983719 201.50083725 194.20267242 200.59566864 194.21589661 199.66307068 C194.22328354 198.69015579 194.23067047 197.71724091 194.23828125 196.71484375 C194.25038887 195.19764488 194.25038887 195.19764488 194.26274109 193.64979553 C194.27656582 191.50718897 194.28729517 189.36456053 194.29516602 187.22192383 C194.30665621 185.04477423 194.32706068 182.86765213 194.35668945 180.69067383 C194.39966473 177.53187058 194.41557919 174.37390422 194.42578125 171.21484375 C194.45204338 169.77672585 194.45204338 169.77672585 194.47883606 168.30955505 C194.45888584 161.986504 193.25035687 157.18361601 190.66471863 151.40260315 C190 149 190 149 190.73994446 146.82115173 C192 145 192 145 194.3125 142.8125 C201.83869273 134.9362518 202.794204 127.67113224 202.625 117 C202.64433594 115.78054687 202.66367187 114.56109375 202.68359375 113.3046875 C202.63327506 103.98566616 200.59406862 98.2561339 194.625 91.1875 C189.1359511 86.61329258 183.83646122 84.04182306 176.671875 83.68359375 C175.87265625 83.64169922 175.0734375 83.59980469 174.25 83.55664062 C173.425 83.51732422 172.6 83.47800781 171.75 83.4375 C170.48929687 83.37272461 170.48929687 83.37272461 169.203125 83.30664062 C167.13559329 83.20091457 165.06781719 83.09998705 163 83 C162.89042969 81.85144531 162.78085937 80.70289062 162.66796875 79.51953125 C160.34035624 55.84766078 160.34035624 55.84766078 146.1484375 37.50390625 C139.51077055 32.85753939 132.58380925 30.88501349 124.53071594 30.85955811 C122.90132332 30.85099289 122.90132332 30.85099289 121.23901367 30.84225464 C120.05710449 30.84113678 118.87519531 30.84001892 117.6574707 30.83886719 C116.40483932 30.83390228 115.15220795 30.82893738 113.86161804 30.82382202 C110.43158442 30.81173437 107.00161161 30.8042605 103.57156396 30.79981136 C101.42481937 30.79687368 99.27808005 30.79276753 97.13133812 30.78830719 C90.40374157 30.77464122 83.67615713 30.76497074 76.94854766 30.7611053 C69.20310149 30.75662968 61.45783224 30.73910117 53.71243984 30.7101047 C47.71222876 30.68842771 41.71206723 30.67839778 35.71181744 30.67706418 C32.13445704 30.67602025 28.55726313 30.67020111 24.97994423 30.65224457 C20.98302249 30.63257143 16.98646693 30.6370767 12.98950195 30.64355469 C11.23181992 30.62973251 11.23181992 30.62973251 9.43862915 30.6156311 C3.20006692 30.64720575 -2.07975181 31.26530882 -7.97619343 33.35628128 C-10 34 -10 34 -13 34 C-10.87555401 26.18300191 -7.9836327 18.82105482 -4.8125 11.375 C-4.34908203 10.27542969 -3.88566406 9.17585938 -3.40820312 8.04296875 C-2.27669493 5.36001117 -1.14056098 2.67911856 0 0 Z " fill="#FEFEFE" transform="translate(191,20)"/>
<path d="M0 0 C1.08626175 -0.00571014 2.1725235 -0.01142029 3.29170227 -0.01730347 C4.47361145 -0.01842133 5.65552063 -0.01953918 6.87324524 -0.02069092 C8.75219231 -0.02813828 8.75219231 -0.02813828 10.6690979 -0.03573608 C14.09913152 -0.04782373 17.52910433 -0.05529761 20.95915198 -0.05974674 C23.10589657 -0.06268442 25.2526359 -0.06679057 27.39937782 -0.07125092 C34.12697438 -0.08491689 40.85455881 -0.09458737 47.58216828 -0.09845281 C55.32761445 -0.10292843 63.0728837 -0.12045694 70.81827611 -0.1494534 C76.81848719 -0.1711304 82.81864871 -0.18116032 88.8188985 -0.18249393 C92.39625891 -0.18353786 95.97345281 -0.189357 99.55077171 -0.20731354 C103.54769345 -0.22698668 107.54424902 -0.2224814 111.54121399 -0.21600342 C112.71300201 -0.2252182 113.88479004 -0.23443298 115.09208679 -0.243927 C127.03402201 -0.18348641 136.80947058 2.60515984 145.50727844 11.06231689 C151.41340473 17.54648958 154.94008888 23.6904309 156.28071594 32.32794189 C156.40357971 33.06391602 156.52644348 33.79989014 156.6530304 34.5581665 C157.62104502 40.76492786 157.85728178 46.86312072 157.53071594 53.14044189 C158.71407532 53.09403564 159.89743469 53.04762939 161.11665344 52.99981689 C171.58194503 52.71197432 179.11924378 53.35184471 188.28071594 58.76544189 C196.43846094 67.37639494 197.80031905 75.17832173 197.96821594 86.57794189 C198.03685852 88.42935791 198.03685852 88.42935791 198.10688782 90.31817627 C198.22005472 99.62246357 196.44106482 107.06653073 189.80830383 113.92022705 C188.15571594 115.32794189 188.15571594 115.32794189 185.53071594 117.14044189 C185.73567688 117.74372314 185.94063782 118.34700439 186.15180969 118.96856689 C186.42122375 119.76778564 186.69063782 120.56700439 186.96821594 121.39044189 C187.36846985 122.57380127 187.36846985 122.57380127 187.77680969 123.78106689 C188.97343239 127.52593794 189.65893151 130.80591963 189.7077179 134.75030518 C189.72055313 135.65870148 189.73338837 136.56709778 189.74661255 137.50302124 C189.75769295 138.96709915 189.75769295 138.96709915 189.76899719 140.46075439 C189.77706894 141.47459198 189.78514069 142.48842957 189.79345703 143.5329895 C189.80728057 145.67979227 189.81801045 147.82661686 189.82588196 149.97344971 C189.83738173 152.15743499 189.85780155 154.34139261 189.8874054 156.52520752 C189.9303151 159.69141623 189.94628541 162.8567901 189.95649719 166.02325439 C189.97400528 166.98716095 189.99151337 167.9510675 190.009552 168.94418335 C189.9775351 179.09249574 186.47476159 187.70039299 179.53071594 195.14044189 C175.64629481 198.59517042 172.65228394 200.18967521 167.53071594 201.14044189 C167.55166321 202.29568359 167.57261047 203.45092529 167.5941925 204.64117432 C167.66671993 208.93678337 167.71256187 213.23233854 167.7504425 217.52838135 C167.770529 219.38589588 167.79780373 221.2433474 167.83247375 223.10064697 C167.88112332 225.77422652 167.90371404 228.44696845 167.92134094 231.12091064 C167.94198608 231.94818161 167.96263123 232.77545258 167.98390198 233.62779236 C167.98546637 237.66885215 167.84539073 239.64323146 165.63130188 243.1416626 C162.37268343 246.2423494 160.46420481 246.27998923 156.05879211 246.34918213 C154.91387802 246.36847275 153.76896393 246.38776337 152.58935547 246.40763855 C147.35102537 246.46522501 142.11277842 246.51495885 136.8742218 246.54547119 C134.10844994 246.56327921 131.34369878 246.59808724 128.57832336 246.64801025 C124.5976532 246.71978611 120.61747303 246.74243994 116.63618469 246.76153564 C115.39958603 246.7893663 114.16298737 246.81719696 112.88891602 246.84587097 C111.73454544 246.84309647 110.58017487 246.84032196 109.39082336 246.83746338 C107.87098091 246.85292458 107.87098091 246.85292458 106.32043457 246.86869812 C103.53071594 246.14044189 103.53071594 246.14044189 98.53071594 240.14044189 C98.53071594 227.93044189 98.53071594 215.72044189 98.53071594 203.14044189 C72.79071594 203.14044189 47.05071594 203.14044189 20.53071594 203.14044189 C20.53071594 215.35044189 20.53071594 227.56044189 20.53071594 240.14044189 C16.53071594 245.14044189 16.53071594 245.14044189 14.53071594 246.14044189 C12.70945966 246.26189282 10.8838683 246.32051687 9.05879211 246.34918213 C7.91387802 246.36847275 6.76896393 246.38776337 5.58935547 246.40763855 C0.35102537 246.46522501 -4.88722158 246.51495885 -10.1257782 246.54547119 C-12.89155006 246.56327921 -15.65630122 246.59808724 -18.42167664 246.64801025 C-22.4023468 246.71978611 -26.38252697 246.74243994 -30.36381531 246.76153564 C-31.60041397 246.7893663 -32.83701263 246.81719696 -34.11108398 246.84587097 C-42.23445561 246.82634662 -42.23445561 246.82634662 -45.37286377 245.08306885 C-48.67629684 241.71612712 -49.03792385 237.97206281 -49.0357666 233.51449585 C-48.99705696 232.28133133 -48.99705696 232.28133133 -48.95756531 231.02325439 C-48.95049057 230.16609833 -48.94341583 229.30894226 -48.93612671 228.42581177 C-48.90827619 225.70477719 -48.84555861 222.98584783 -48.78178406 220.26544189 C-48.75668896 218.41390925 -48.73387791 216.56234414 -48.71342468 214.71075439 C-48.65848056 210.18651344 -48.57227568 205.66383381 -48.46928406 201.14044189 C-49.24795837 201.00178711 -50.02663269 200.86313232 -50.8289032 200.72027588 C-56.48900555 199.47730379 -60.92406795 195.2160076 -64.31303406 190.66387939 C-69.26340788 182.6316552 -70.78361943 176.00289487 -70.80522156 166.65997314 C-70.81187836 165.65133713 -70.81853516 164.64270111 -70.82539368 163.60350037 C-70.8354958 161.47284765 -70.84021145 159.34216345 -70.83988953 157.21148682 C-70.84424638 153.98088227 -70.88054784 150.75166299 -70.91850281 147.52130127 C-70.92437501 145.44252985 -70.9283417 143.36375201 -70.93022156 141.28497314 C-70.94459259 140.33250198 -70.95896362 139.38003082 -70.97377014 138.3986969 C-70.93177327 132.11425403 -69.70356374 127.2312928 -67.23042297 121.44786072 C-66.17612293 119.02409533 -66.17612293 119.02409533 -67.46928406 116.14044189 C-68.19115906 115.64544189 -68.91303406 115.15044189 -69.65678406 114.64044189 C-74.60677184 110.24045276 -77.88419996 104.52596191 -79.01786804 97.96612549 C-79.20024248 94.6503631 -79.19127348 91.39692004 -79.09428406 88.07794189 C-79.10072937 86.97128174 -79.10717468 85.86462158 -79.11381531 84.72442627 C-79.00375371 76.25468625 -77.61612926 68.85210546 -72.03178406 62.26544189 C-71.18615906 61.56419189 -70.34053406 60.86294189 -69.46928406 60.14044189 C-68.70615906 59.43919189 -67.94303406 58.73794189 -67.15678406 58.01544189 C-60.65063895 53.47627089 -54.6672155 52.70846362 -46.96928406 52.95294189 C-46.14686218 52.96647705 -45.32444031 52.98001221 -44.47709656 52.99395752 C-42.47420184 53.02889173 -40.4716505 53.08268132 -38.46928406 53.14044189 C-38.52149109 52.13690674 -38.52149109 52.13690674 -38.57475281 51.11309814 C-38.94037421 38.14224366 -37.79144124 24.59244025 -29.46928406 14.14044189 C-28.96654968 13.49848877 -28.46381531 12.85653564 -27.94584656 12.19512939 C-20.83967976 4.18769267 -10.56160174 0.03338464 0 0 Z " fill="#072B76" transform="translate(196.4692840576172,49.85955810546875)"/>
<path d="M0 0 C1.15070105 -0.00445784 2.30140209 -0.00891569 3.48697287 -0.01350862 C5.38426025 -0.01323207 5.38426025 -0.01323207 7.31987667 -0.01294994 C8.67667446 -0.01624985 10.03347127 -0.01997569 11.39026684 -0.02409142 C15.12251354 -0.03410524 18.85474416 -0.03782723 22.5870024 -0.04048073 C26.61104523 -0.04438565 30.63507535 -0.05396391 34.65911007 -0.0626936 C44.37949094 -0.08245336 54.09987285 -0.09252389 63.82026878 -0.10142139 C68.39886331 -0.10580535 72.97745668 -0.1111719 77.5560503 -0.11641026 C92.77848635 -0.13342254 108.00092169 -0.14791621 123.22336578 -0.155159 C127.17341837 -0.15706886 131.12347096 -0.1589892 135.07352352 -0.16094494 C136.5461567 -0.16167055 136.5461567 -0.16167055 138.04854005 -0.16241082 C153.94854566 -0.17070923 169.84847599 -0.19604295 185.74844874 -0.22852562 C202.07617918 -0.26160992 218.40387138 -0.27960902 234.73163551 -0.28280324 C243.89759739 -0.28496713 253.06344951 -0.29369808 262.2293787 -0.31926441 C270.03641286 -0.3409902 277.8433106 -0.34901262 285.65037156 -0.33929763 C289.63151762 -0.33475827 293.61238232 -0.33661768 297.59348965 -0.35605907 C301.24371657 -0.37373014 304.89345771 -0.3726616 308.54369008 -0.35716178 C310.47795839 -0.35367551 312.41223204 -0.36978263 314.34642893 -0.38676625 C327.03657608 -0.29361231 336.44673672 3.38711092 345.51370907 12.20453358 C353.22253212 20.35345518 356.54245926 28.4545736 356.5190239 39.59226799 C356.52137613 40.34997922 356.52372836 41.10769044 356.52615187 41.88836262 C356.53283922 44.44193313 356.53238372 46.99545272 356.53197384 49.54903126 C356.53527263 51.39255521 356.53899823 53.23607844 356.54311532 55.07960075 C356.55314174 60.15723276 356.55685315 65.23485294 356.55950463 70.31249344 C356.56340578 75.78440073 356.57298426 81.25629865 356.58171749 86.72819996 C356.6014874 99.94879825 356.61154885 113.16939731 356.62044528 126.39000669 C356.62482738 132.61432009 356.6301944 138.83863264 356.63543415 145.06294537 C356.65244707 165.75151261 356.66696635 186.44007939 356.67418289 207.12865257 C356.67465765 208.46661436 356.67513354 209.80457616 356.67561055 211.14253795 C356.67584693 211.80604274 356.67608331 212.46954753 356.67632685 213.15315853 C356.67752803 216.51476597 356.67874349 219.87637341 356.67996883 223.23798084 C356.68020898 223.90510047 356.68044913 224.57222011 356.68069656 225.25955548 C356.6885879 246.88477261 356.71201613 268.50993487 356.74452478 290.13512804 C356.77883691 313.00180592 356.7985342 335.86845987 356.80182713 358.73516506 C356.80399296 371.19870427 356.81275225 383.66216284 356.83828831 396.12567806 C356.85998473 406.73975396 356.86805089 417.35372962 356.85832153 427.96782518 C356.85377378 433.38283161 356.85569084 438.79763117 356.87508297 444.21260929 C356.89269324 449.17289364 356.89173408 454.13281989 356.87618568 459.09310793 C356.87380638 460.88456285 356.87814984 462.67604242 356.89001433 464.46745963 C356.98181118 479.24705925 354.89183872 490.38642001 344.31449032 501.26312733 C336.90233468 508.2749749 329.03765212 512.24998437 318.76960564 512.26844215 C317.61890459 512.2729 316.46820354 512.27735784 315.28263277 512.28195077 C314.01777451 512.28176641 312.75291626 512.28158205 311.44972897 512.2813921 C310.09293117 512.28469201 308.73613436 512.28841784 307.3793388 512.29253358 C303.6470921 512.3025474 299.91486147 512.30626938 296.18260324 512.30892289 C292.15856041 512.31282781 288.13453028 512.32240606 284.11049557 512.33113575 C274.3901147 512.35089552 264.66973279 512.36096605 254.94933686 512.36986354 C250.37074233 512.3742475 245.79214895 512.37961406 241.21355534 512.38485241 C225.99111928 512.4018647 210.76868395 512.41635836 195.54623985 512.42360115 C191.59618726 512.42551102 187.64613468 512.42743135 183.69608212 512.42938709 C182.71432666 512.42987083 181.73257121 512.43035457 180.72106559 512.43085297 C164.82105998 512.43915138 148.92112965 512.4644851 133.0211569 512.49696777 C116.69342646 512.53005208 100.36573426 512.54805118 84.03797013 512.55124539 C74.87200825 512.55340929 65.70615612 512.56214023 56.54022694 512.58770657 C48.73319278 512.60943235 40.92629504 512.61745477 33.11923408 512.60773978 C29.13808802 512.60320042 25.15722331 512.60505984 21.17611599 512.62450123 C17.52588907 512.64217229 13.87614792 512.64110375 10.22591556 512.62560394 C8.29164724 512.62211766 6.3573736 512.63822478 4.42317671 512.65520841 C-8.26697045 512.56205447 -17.67713108 508.88133123 -26.74410343 500.06390858 C-34.45292649 491.91498697 -37.77285363 483.81386855 -37.74941826 472.67617416 C-37.75177049 471.91846294 -37.75412272 471.16075171 -37.75654623 470.38007954 C-37.76323358 467.82650903 -37.76277809 465.27298943 -37.7623682 462.7194109 C-37.76566699 460.87588694 -37.76939259 459.03236371 -37.77350968 457.1888414 C-37.78353611 452.1112094 -37.78724751 447.03358921 -37.78989899 441.95594871 C-37.79380015 436.48404142 -37.80337863 431.01214351 -37.81211185 425.5402422 C-37.83188176 412.3196439 -37.84194321 399.09904484 -37.85083964 385.87843546 C-37.85522174 379.65412206 -37.86058876 373.42980951 -37.86582851 367.20549679 C-37.88284143 346.51692954 -37.89736071 325.82836276 -37.90457726 305.13978958 C-37.90505201 303.80182779 -37.9055279 302.463866 -37.90600492 301.12590421 C-37.90624129 300.46239941 -37.90647767 299.79889462 -37.90672121 299.11528362 C-37.9079224 295.75367618 -37.90913785 292.39206874 -37.9103632 289.03046131 C-37.91072342 288.02978186 -37.91072342 288.02978186 -37.91109092 287.00888667 C-37.91898226 265.38366954 -37.94241049 243.75850728 -37.97491914 222.13331411 C-38.00923127 199.26663623 -38.02892857 176.39998229 -38.0322215 153.53327709 C-38.03438732 141.06973788 -38.04314662 128.60627932 -38.06868267 116.14276409 C-38.0903791 105.52868819 -38.09844526 94.91471253 -38.08871589 84.30061697 C-38.08416815 78.88561055 -38.0860852 73.47081098 -38.10547733 68.05583286 C-38.1230876 63.09554852 -38.12212845 58.13562226 -38.10658004 53.17533422 C-38.10420074 51.38387931 -38.1085442 49.59239973 -38.12040869 47.80098253 C-38.21220554 33.02138291 -36.12223309 21.88202215 -25.54488468 11.00531483 C-18.13272905 3.99346725 -10.26804649 0.01845778 0 0 Z M-13.49019718 28.13422108 C-17.12176825 33.26114494 -17.9093716 37.39950155 -17.87246609 43.59875679 C-17.8777252 44.7181421 -17.8777252 44.7181421 -17.88309056 45.86014125 C-17.89241813 48.36875547 -17.88747776 50.87713825 -17.88262272 53.38576221 C-17.88635829 55.19929004 -17.89095944 57.01281625 -17.89635336 58.8263399 C-17.90861022 63.81630912 -17.90831974 68.80621144 -17.90596461 73.79619229 C-17.90555713 79.175323 -17.91658908 84.55443207 -17.92607975 89.93355274 C-17.94270538 100.47468595 -17.94819 111.0157968 -17.94930451 121.55694202 C-17.95025423 130.12369197 -17.95436072 138.69043452 -17.96070576 147.25718212 C-17.97832233 171.53563232 -17.98754396 195.81406483 -17.98604481 220.09252147 C-17.98592494 222.05654534 -17.98592494 222.05654534 -17.98580265 224.06024647 C-17.98572089 225.37119098 -17.98563913 226.68213548 -17.98555489 228.03280558 C-17.98474184 249.2825861 -18.00388316 270.53229576 -18.03207938 291.78205577 C-18.06079033 313.59149709 -18.07462067 335.40090382 -18.07289183 357.21036452 C-18.07222732 369.45860707 -18.0777465 381.70677533 -18.09924793 393.95500088 C-18.11743617 404.38286164 -18.12182644 414.81061445 -18.10822909 425.23848418 C-18.10168758 430.55996081 -18.10162494 435.88123019 -18.11893559 441.20268726 C-18.13461897 446.07396352 -18.13185112 450.94486738 -18.11436732 455.8161343 C-18.11128698 457.57856669 -18.11496858 459.34102654 -18.12608747 461.10342655 C-18.34004841 474.61213353 -18.34004841 474.61213353 -11.83394718 486.15765858 C-11.26675968 486.6036742 -10.69957218 487.04968983 -10.11519718 487.50922108 C-9.26441593 488.20144764 -9.26441593 488.20144764 -8.39644718 488.90765858 C-4.54733683 491.55814246 -1.80807414 492.38469068 2.89905834 492.39148998 C4.5913094 492.40116332 4.5913094 492.40116332 6.31774735 492.41103208 C8.17724932 492.40638627 8.17724932 492.40638627 10.07431698 492.40164661 C12.04945786 492.40844328 12.04945786 492.40844328 14.06450057 492.41537726 C17.72275173 492.42762929 21.3809116 492.42734421 25.03917861 492.42498851 C28.98341617 492.42458089 32.92762424 492.4356143 36.87184811 492.44510365 C44.60103604 492.46172724 52.33019347 492.46721383 60.05939779 492.4683284 C66.34213355 492.46927834 72.62485924 492.47338591 78.90759182 492.47972965 C96.71746071 492.49734663 114.52730548 492.50656794 132.33718315 492.5050687 C133.29761932 492.50498879 134.25805549 492.50490888 135.24759579 492.50482655 C136.20920387 492.50474478 137.17081195 492.50466302 138.16155967 492.50457878 C153.74350442 492.503766 169.32535248 492.52290053 184.90726927 492.55110328 C200.90389698 492.57982828 216.90047753 492.59364375 232.89713168 492.59191573 C241.87910941 492.59125164 250.86098582 492.59675202 259.84294033 492.61827183 C267.49123426 492.63647869 275.13938094 492.64083515 282.78768715 492.62725298 C286.68947254 492.62072047 290.5909754 492.62061602 294.49273396 492.63795948 C298.06694946 492.65368343 301.64065827 492.65083402 305.21486136 492.63339122 C307.11555091 492.62886826 309.01625613 492.64398419 310.91688466 492.65987051 C318.77148525 492.59642108 324.28844783 491.66910656 330.40824032 486.38812733 C330.85425594 485.82996326 331.30027157 485.2717992 331.75980282 484.69672108 C332.22128719 484.14113514 332.68277157 483.5855492 333.15824032 483.01312733 C336.19153729 478.36658006 336.67446773 474.11145063 336.64207172 468.66968536 C336.64733084 467.55030006 336.64733084 467.55030006 336.65269619 466.40830091 C336.66202377 463.89968668 336.6570834 461.39130391 336.65222836 458.88267994 C336.65596393 457.06915212 336.66056508 455.2556259 336.665959 453.44210225 C336.67821586 448.45213303 336.67792537 443.46223072 336.67557025 438.47224987 C336.67516276 433.09311915 336.68619471 427.71401009 336.69568539 422.33488941 C336.71231102 411.7937562 336.71779564 401.25264535 336.71891014 390.71150013 C336.71985986 382.14475019 336.72396636 373.57800764 336.73031139 365.01126003 C336.74792797 340.73280983 336.7571496 316.45437733 336.75565045 292.17592069 C336.75557053 290.86657144 336.75549062 289.55722219 336.75540829 288.20819569 C336.75528565 286.24177892 336.75528565 286.24177892 336.75516053 284.23563657 C336.75434748 262.98585605 336.77348879 241.7361464 336.80168502 220.48638638 C336.83039597 198.67694507 336.8442263 176.86753833 336.84249747 155.05807763 C336.84183295 142.80983509 336.84735214 130.56166682 336.86885357 118.31344128 C336.8870418 107.88558051 336.89143208 97.45782771 336.87783472 87.02995797 C336.87129322 81.70848134 336.87123058 76.38721196 336.88854122 71.06575489 C336.90422461 66.19447863 336.90145676 61.32357477 336.88397296 56.45230786 C336.88089262 54.68987547 336.88457422 52.92741561 336.89569311 51.1650156 C337.08910826 37.67855429 337.08910826 37.67855429 330.63870907 26.11078358 C329.80146297 25.44176014 329.80146297 25.44176014 328.94730282 24.75922108 C328.39171688 24.2977367 327.83613094 23.83625233 327.26370907 23.36078358 C323.18204112 20.69624358 319.58533256 19.88383948 314.74749947 19.87415886 C313.61734104 19.86709327 312.48718262 19.86002768 311.32277697 19.85274798 C310.08602184 19.85516306 308.8492667 19.85757815 307.57503414 19.86006641 C305.59861163 19.8522114 305.59861163 19.8522114 303.58226138 19.84419769 C299.92627423 19.83001976 296.27037211 19.82835436 292.61436141 19.8287946 C288.6708196 19.82714622 284.72731281 19.81407939 280.78378963 19.80260181 C272.16192321 19.77975509 263.5400814 19.7718317 254.91818881 19.76677537 C249.534501 19.76351825 244.15082034 19.75699572 238.76713657 19.74977398 C223.86033737 19.73020921 208.95354482 19.71380404 194.04673195 19.71089745 C193.09288162 19.71070988 192.13903128 19.71052231 191.15627639 19.71032905 C189.22260749 19.7099628 187.28893859 19.7095991 185.35526969 19.70923794 C184.39539893 19.70905513 183.43552816 19.70887232 182.4465704 19.70868397 C181.48552782 19.70850342 180.52448524 19.70832287 179.53432015 19.70813685 C163.95888501 19.70459452 148.38358807 19.67756796 132.80820086 19.64018608 C116.81606103 19.60211115 100.82398979 19.58274003 84.83180362 19.58243793 C75.85316665 19.58185321 66.87469458 19.57335167 57.89610004 19.54444027 C50.25146966 19.51993737 42.60706432 19.51263613 34.96240529 19.5276878 C31.06257659 19.534861 27.1631924 19.53398206 23.26341343 19.5112772 C19.69099649 19.49067764 16.1193655 19.49329558 12.54695699 19.51415204 C10.64729612 19.5192959 8.74761735 19.49987475 6.84805888 19.47949034 C-1.981607 19.56630365 -7.56753935 21.50932703 -13.49019718 28.13422108 Z " fill="#052A75" transform="translate(96.61519718170166,-0.13422107696533203)"/>
<path d="M0 0 C0.82083275 -0.00467997 1.64166551 -0.00935994 2.48737198 -0.01418173 C5.235729 -0.02614034 7.98358819 -0.01667112 10.73194885 -0.00723267 C12.7032246 -0.01129801 14.67449807 -0.01663968 16.64576721 -0.02316284 C21.99906581 -0.03684749 27.35219108 -0.03153276 32.70549273 -0.02202559 C38.30676922 -0.01443391 43.9080308 -0.02147333 49.50930786 -0.02618408 C58.91704474 -0.03164351 68.32471098 -0.02444555 77.73243713 -0.01016235 C88.60868857 0.00615975 99.48477126 0.00087956 110.3610186 -0.01564157 C119.69788095 -0.02925673 129.03469251 -0.03117579 138.37156159 -0.02332556 C143.94854597 -0.01864862 149.52545105 -0.01802474 155.10243034 -0.02793503 C160.34653239 -0.03660263 165.59041698 -0.0305864 170.83449554 -0.01325226 C172.75898185 -0.00928613 174.68348645 -0.01042361 176.60796547 -0.01704025 C179.23547256 -0.02524091 181.86228333 -0.01495204 184.48974609 0 C185.63153553 -0.01003825 185.63153553 -0.01003825 186.79639143 -0.02027929 C191.53736043 0.03203161 194.80020602 0.83438916 198.80836487 3.38095093 C202.9817354 8.86749221 203.39200411 13.32070251 203.30445862 20.07626343 C203.30591385 20.98673431 203.30736908 21.8972052 203.30886841 22.83526611 C203.30721607 24.74977842 203.2957298 26.66430494 203.2749176 28.57870483 C203.24588179 31.50424643 203.25433883 34.42798236 203.26734924 37.35360718 C203.26111338 39.21950137 203.25272363 41.08538987 203.24195862 42.95126343 C203.24489426 43.82219635 203.2478299 44.69312927 203.25085449 45.5904541 C203.16127387 51.36678585 202.13264164 54.66929469 198.30836487 59.13095093 C194.69412192 62.14282005 190.22329285 61.53483961 185.78804016 61.5415802 C184.548162 61.54921193 184.548162 61.54921193 183.28323579 61.55699784 C180.5035279 61.57273891 177.72384604 61.58125173 174.94410706 61.58969116 C172.95504592 61.5992282 170.96598646 61.60911929 168.97692871 61.61933899 C162.43638583 61.65073832 155.89583016 61.67099084 149.35523987 61.68954468 C148.24290639 61.692842 147.13057291 61.69613932 145.98453236 61.69953656 C135.49667189 61.73031529 125.00880857 61.757026 114.52091599 61.77395535 C101.10028274 61.79587189 87.68004908 61.83786474 74.25957561 61.90739292 C64.82594033 61.95460935 55.39241297 61.97888569 45.95866323 61.98615223 C40.32276651 61.99111158 34.68732007 62.00622012 29.05155182 62.04589653 C23.74907706 62.08273476 18.44731028 62.09118159 13.14473152 62.0778904 C11.19967124 62.07794439 9.25457981 62.08825886 7.30963707 62.10964203 C4.65111149 62.13730577 1.99517123 62.12782444 -0.66337585 62.10920715 C-1.43080211 62.12600208 -2.19822836 62.14279701 -2.98890996 62.16010088 C-8.27066372 62.0678413 -10.99020003 60.51825713 -14.8625505 56.96081692 C-17.12401634 54.27264124 -17.32246894 51.66496557 -17.36863708 48.29598999 C-17.38147232 47.47793884 -17.39430756 46.6598877 -17.40753174 45.81704712 C-17.41491867 44.93579163 -17.4223056 44.05453613 -17.42991638 43.14657593 C-17.43798813 42.2351886 -17.44605988 41.32380127 -17.45437622 40.38479614 C-17.46820653 38.45482276 -17.4789334 36.52482502 -17.48680115 34.59481812 C-17.50398943 31.65586449 -17.54788182 28.71804321 -17.59202576 25.77938843 C-17.60215537 23.90179251 -17.61067063 22.02418705 -17.61741638 20.14657593 C-17.63492447 19.27341736 -17.65243256 18.40025879 -17.67047119 17.50064087 C-17.64975597 11.61894435 -16.72828167 8.14180674 -13.19163513 3.38095093 C-8.99266679 0.09310982 -5.14098984 -0.04506587 0 0 Z " fill="#FC7DA0" transform="translate(163.19163513183594,171.61904907226563)"/>
<path d="M0 0 C1.840532 -0.01073296 1.840532 -0.01073296 3.71824646 -0.02168274 C7.06380722 -0.03563864 10.40780846 -0.0273201 13.75324059 -0.00759244 C17.26620689 0.00887391 20.77912551 -0.00002987 24.29211426 -0.00511169 C30.18982674 -0.00962381 36.08722116 0.00618195 41.98486328 0.03417969 C48.78786249 0.06622791 55.59028828 0.06621315 62.39332819 0.04896492 C68.9575988 0.03306013 75.52166067 0.03985864 82.08592224 0.05690193 C84.870454 0.06374586 87.65481709 0.06276757 90.43934631 0.05535698 C94.33348169 0.0462208 98.22703591 0.070314 102.12109375 0.09765625 C103.84041359 0.08786743 103.84041359 0.08786743 105.59446716 0.07788086 C112.78728635 0.16357546 118.82969116 0.96108064 124.13722134 6.18206978 C130.1856896 13.22380436 129.87330352 24.44023013 130.59570312 33.27563477 C130.67928574 34.24788498 130.76286835 35.22013519 130.84898376 36.22184753 C131.11189884 39.29537333 131.36749383 42.36945786 131.62304688 45.44360352 C131.79771838 47.49116874 131.97284532 49.53869516 132.1484375 51.58618164 C133.02902289 61.93061227 133.82077904 72.27435383 134.56054688 82.63110352 C79.78054688 82.63110352 25.00054687 82.63110352 -31.43945312 82.63110352 C-30.53140196 69.91838717 -29.57955866 57.21486508 -28.50244141 44.51586914 C-28.29294268 41.99926982 -28.09150725 39.48198685 -27.89794922 36.96411133 C-27.61435625 33.29122488 -27.30313288 29.62156857 -26.98632812 25.95141602 C-26.90590271 24.8335672 -26.82547729 23.71571838 -26.74261475 22.56399536 C-26.05431478 15.03644183 -24.64085587 9.3621597 -18.84325027 4.21359539 C-12.7582336 -0.04255277 -7.25935448 -0.07405064 0 0 Z " fill="#FCFDFD" transform="translate(204.439453125,69.368896484375)"/>
<path d="M0 0 C1.22529419 -0.00852997 2.45058838 -0.01705994 3.7130127 -0.02584839 C5.06796278 -0.02514939 6.42291275 -0.02422634 7.77786255 -0.02310181 C9.20712638 -0.02908724 10.63638697 -0.03589282 12.06564331 -0.04345703 C15.94586814 -0.06112278 19.82600477 -0.06581265 23.70626593 -0.0670886 C26.13121425 -0.06851044 28.55614016 -0.07278063 30.98108292 -0.07808304 C39.44297967 -0.09658519 47.90481342 -0.10475342 56.36672974 -0.10317993 C64.25116492 -0.10197846 72.13532638 -0.12308123 80.0196923 -0.15466726 C86.79179829 -0.1808294 93.56381487 -0.19154726 100.335971 -0.19026911 C104.37938123 -0.18975946 108.42254821 -0.19544431 112.46590805 -0.21662521 C116.26960777 -0.23600676 120.07283216 -0.23613304 123.87654877 -0.22159195 C125.27051361 -0.21950261 126.6645082 -0.22421231 128.05842209 -0.23631287 C141.2045383 -0.34301962 141.2045383 -0.34301962 146.01663208 4.26742554 C147.15287327 6.53990791 147.28110051 8.05045317 147.39163208 10.57992554 C147.44061646 11.33918335 147.48960083 12.09844116 147.54006958 12.88070679 C146.74726041 16.49567995 144.81531756 17.92748835 142.01663208 20.26742554 C139.07275391 20.89383793 139.07275391 20.89383793 135.75442505 20.89561462 C134.49265442 20.90826859 133.23088379 20.92092255 131.93087769 20.93395996 C130.54018753 20.92264463 129.14950148 20.9108172 127.75881958 20.89852905 C126.28837216 20.90366937 124.81793091 20.9109515 123.34750366 20.92021179 C119.35975563 20.9387202 115.37267652 20.92579128 111.38495636 20.90612149 C107.20992766 20.8897288 103.03494113 20.89854874 98.8598938 20.90364075 C91.84888023 20.90816103 84.83813351 20.89229608 77.82717896 20.86434937 C69.72397397 20.83229762 61.62125025 20.83231333 53.51801109 20.84956414 C45.71982164 20.86543336 37.92180846 20.85869316 30.12362671 20.84162712 C26.80631818 20.83475831 23.48915102 20.83578729 20.17184448 20.84317207 C16.26465626 20.85083889 12.35801507 20.83869651 8.4509201 20.81132317 C7.01785658 20.8044423 5.58474194 20.80433823 4.15167999 20.8115387 C2.19406109 20.82024068 0.23637781 20.80183024 -1.72116089 20.78208923 C-3.36373367 20.77787885 -3.36373367 20.77787885 -5.03948975 20.77358341 C-8.681283 20.14742899 -10.36022418 18.82105561 -12.98336792 16.26742554 C-14.14533538 13.27415452 -14.27946043 10.45611409 -13.98336792 7.26742554 C-10.55854394 1.3056949 -6.60956066 0.02079771 0 0 Z " fill="#6A66F7" transform="translate(141.98336791992188,376.7325744628906)"/>
<path d="M0 0 C1.24641266 -0.00860046 2.49282532 -0.01720093 3.77700806 -0.02606201 C5.17118794 -0.03049768 6.56536826 -0.034796 7.95954895 -0.03897095 C9.41792498 -0.04686876 10.87629904 -0.0551375 12.33467102 -0.06375122 C17.13775251 -0.09001502 21.94084289 -0.10528611 26.74397278 -0.11953735 C28.3959383 -0.1248958 30.04790376 -0.1302733 31.69986916 -0.13566971 C38.57201347 -0.15730745 45.4441554 -0.17604371 52.31632519 -0.1872921 C62.17074492 -0.20352635 72.02476997 -0.23668082 81.8790409 -0.29369295 C88.80393837 -0.33239233 95.7287303 -0.35192494 102.65373307 -0.35721266 C106.79116668 -0.36086702 110.92817979 -0.37289597 115.06549644 -0.4053154 C118.96030421 -0.4353953 122.85443709 -0.44170857 126.74933624 -0.42993164 C128.17718077 -0.42971087 129.60505657 -0.4380188 131.03279305 -0.45558548 C143.16186004 -0.59666717 143.16186004 -0.59666717 147.11233521 2.54779053 C149.96341043 6.00182654 150.07858406 7.69113045 149.79866028 11.99765015 C148.94686968 15.42968234 147.00861629 17.06238604 144.26350403 19.15390015 C141.57598958 20.49765737 139.49320054 20.29218633 136.48268127 20.30780029 C134.63624275 20.32070099 134.63624275 20.32070099 132.75250244 20.3338623 C131.38084454 20.33829768 130.00918619 20.34259602 128.63752747 20.34677124 C127.1987081 20.35467144 125.75989072 20.36294034 124.32107544 20.37155151 C119.58836258 20.39778298 114.85564083 20.4130811 110.12287903 20.42733765 C108.49412785 20.43269702 106.86537673 20.43807453 105.23662567 20.44347 C98.46137636 20.46510113 91.68612945 20.48383774 84.91085434 20.49509239 C75.19915261 20.51133047 65.48785105 20.54450177 55.77630019 20.60149324 C48.9490463 20.64019289 42.12189944 20.65972514 35.29453874 20.66501296 C31.21636219 20.66866667 27.13861235 20.68068921 23.0605545 20.71311569 C19.22236415 20.74319688 15.38485864 20.74950845 11.54657555 20.73773193 C10.13969304 20.73751119 8.73277876 20.74581708 7.32600594 20.76338577 C-4.62362744 20.90446784 -4.62362744 20.90446784 -8.55918884 17.76000977 C-11.33759563 14.43441892 -11.82139912 12.51929738 -12.05290222 8.31015015 C-11.53420429 4.77531981 -9.47489572 3.24029996 -6.73649597 1.15390015 C-4.96462842 -0.61796741 -2.40043993 0.01227083 0 0 Z " fill="#6965F7" transform="translate(139.7364959716797,325.8460998535156)"/>
<path d="M0 0 C1.23240417 -0.00571014 2.46480835 -0.01142029 3.73455811 -0.01730347 C5.10780324 -0.01854889 6.4810485 -0.01967397 7.85429382 -0.02069092 C9.29473498 -0.02531821 10.73517491 -0.03034275 12.1756134 -0.03573608 C16.09512671 -0.04887148 20.01462287 -0.05530736 23.93415475 -0.05974674 C26.38219385 -0.06267588 28.83022826 -0.06678041 31.278265 -0.07125092 C38.93544408 -0.0849294 46.59261243 -0.0945941 54.24980289 -0.09845281 C63.09276941 -0.10293333 71.93558134 -0.12047942 80.77850085 -0.1494534 C87.61083777 -0.17106346 94.44313117 -0.18115674 101.27550191 -0.18249393 C105.35743757 -0.18354253 109.43922798 -0.18946179 113.5211277 -0.20731354 C117.36165719 -0.22378242 121.20193208 -0.22595559 125.04248428 -0.21717453 C126.45138035 -0.21640349 127.86029003 -0.22075574 129.26915169 -0.23063278 C131.19404136 -0.243335 133.11903312 -0.23569003 135.04394531 -0.22705078 C136.12076726 -0.22851734 137.19758921 -0.2299839 138.30704212 -0.2314949 C141.66435218 0.19829259 143.50870286 1.13082686 146.21244812 3.14044189 C148.67173556 6.82937306 148.90550391 9.85685611 148.21244812 14.14044189 C146.08796542 17.58356903 145.06392171 18.85661737 141.21244812 20.14044189 C139.23247291 20.24217834 137.24923881 20.28413321 135.26667786 20.29434204 C134.02448486 20.3029425 132.78229187 20.31154297 131.50245667 20.32040405 C130.12339825 20.32483911 128.74433938 20.32913748 127.36528015 20.33331299 C125.91483871 20.34121542 124.46439922 20.34948446 123.01396179 20.35809326 C118.24941378 20.38429123 113.48485707 20.39961601 108.72026062 20.41387939 C107.08003102 20.41923949 105.43980148 20.424617 103.79957199 20.43001175 C96.97795689 20.45163483 90.15634414 20.47037261 83.33470345 20.48163414 C73.55702215 20.49788212 63.77973767 20.53108667 54.00220597 20.58803499 C47.12738954 20.62671311 40.25267935 20.64626413 33.37775695 20.6515547 C29.27112399 20.65521036 25.16491446 20.66725418 21.0583992 20.69965744 C17.19557661 20.72970204 13.33343448 20.7360633 9.47052002 20.72427368 C8.05354146 20.72405266 6.63653165 20.73238189 5.21966171 20.74992752 C-6.83137386 20.89102855 -6.83137386 20.89102855 -10.10667419 17.72897339 C-12.61121181 13.87201548 -13.32422695 11.79162581 -12.78755188 7.14044189 C-9.31137542 1.52408216 -6.42928632 0.01777923 0 0 Z " fill="#6864F7" transform="translate(140.7875518798828,428.85955810546875)"/>
<path d="M0 0 C3.2035667 0.59196341 4.95766868 2.06244485 7.15625 4.3984375 C8.58929064 7.26451879 8.46269155 9.21144533 8.15625 12.3984375 C1.74075938 23.33125752 -10.38554402 32.42630018 -20.84375 39.3984375 C-24.16513725 40.03940697 -25.6755208 40.27464254 -28.84375 39.3984375 C-35.13795039 35.01480333 -42.36811775 28.34970199 -45.84375 21.3984375 C-46.24792552 18.43448368 -46.40757171 16.30938824 -44.796875 13.70703125 C-42.07225106 10.38138732 -40.39121256 8.57428552 -36.09375 8.0859375 C-32.03108756 8.47657812 -30.0931201 9.99672917 -26.84375 12.3984375 C-25.52101007 13.08588298 -24.18954821 13.75730616 -22.84375 14.3984375 C-22.10769531 13.72296875 -21.37164062 13.0475 -20.61328125 12.3515625 C-19.62767827 11.45043978 -18.64199701 10.54940267 -17.65625 9.6484375 C-16.69332031 8.76671875 -15.73039062 7.885 -14.73828125 6.9765625 C-6.58512782 -0.28535554 -6.58512782 -0.28535554 0 0 Z " fill="#FD6253" transform="translate(375.84375,370.6015625)"/>
<path d="M0 0 C3.5386994 1.65139305 4.81070153 2.71605229 7 6 C7.60832193 9.44715761 7.72363042 11.84506668 5.8203125 14.8828125 C0.80782057 20.8066666 -5.16039734 25.91544913 -11 31 C-11.88558594 31.78503906 -12.77117187 32.57007813 -13.68359375 33.37890625 C-22.00724855 40.46098088 -22.00724855 40.46098088 -28 40 C-32.47021108 37.37190887 -36.13153199 34.17860876 -39.75 30.5 C-40.23082031 30.02691406 -40.71164062 29.55382812 -41.20703125 29.06640625 C-44.69430603 25.55970375 -46.74676315 22.98368864 -47.375 18.0625 C-46.90977662 14.2631757 -45.63608379 12.71361566 -43 10 C-39.78055524 8.39027762 -36.48086312 8.38190281 -33 9 C-31.31640625 10.15234375 -31.31640625 10.15234375 -29.8125 11.5625 C-27.33586108 14.23895813 -27.33586108 14.23895813 -24.7421875 14.02734375 C-20.77832574 12.54230722 -18.29873489 9.9355061 -15.3125 7 C-7.51734439 -0.50965047 -7.51734439 -0.50965047 0 0 Z " fill="#FD6252" transform="translate(377,319)"/>
<path d="M0 0 C2.97361628 1.78152067 5.42653612 3.85307225 7 7 C7.42236512 11.75160762 6.71682576 14.1230482 4 18 C1.72265625 20.0703125 1.72265625 20.0703125 -0.9375 22.125 C-5.82850408 25.9948769 -10.42617919 30.06570552 -14.93920898 34.36962891 C-18.39746403 37.61856076 -21.09937374 39.61123554 -25.75 40.5625 C-30.81930603 39.68512011 -33.41227438 36.51648919 -37 33 C-38.22589844 31.93458984 -38.22589844 31.93458984 -39.4765625 30.84765625 C-46.44976901 24.54963323 -46.44976901 24.54963323 -47.3125 19.25 C-47.37075229 15.91796874 -46.98835815 14.98073073 -45.1875 12 C-41.94759752 9.03780344 -39.596588 8.55832434 -35.17578125 8.56640625 C-31.21963447 9.35479457 -28.70735672 12.15727545 -26 15 C-21.93831292 13.35575077 -19.06456388 10.46975146 -15.9375 7.5 C-7.08982893 -0.84116614 -7.08982893 -0.84116614 0 0 Z " fill="#FD6252" transform="translate(377,422)"/>
<path d="M0 0 C0.7139946 -0.0066568 1.4279892 -0.0133136 2.16362 -0.02017212 C3.67407662 -0.03029067 5.18457788 -0.03498938 6.69506836 -0.03466797 C8.99343703 -0.03902782 11.28986341 -0.07531363 13.58789062 -0.11328125 C15.05858722 -0.11915253 16.52929289 -0.12311984 18 -0.125 C18.68145584 -0.13937103 19.36291168 -0.15374207 20.0650177 -0.16854858 C25.0546578 -0.12135372 27.86513104 1.20536186 31.69921875 4.3359375 C34.03831182 7.8445771 34.11212932 9.20683183 33.69921875 13.3359375 C32.03159553 16.83000519 30.95915853 18.16264431 27.69921875 20.3359375 C25.00078875 20.5677963 22.4079417 20.68787956 19.70703125 20.70703125 C18.92407684 20.71605972 18.14112244 20.7250882 17.33444214 20.73439026 C15.67856671 20.74889089 14.02263401 20.75777904 12.36669922 20.76147461 C9.8398321 20.77336404 7.31541364 20.82253956 4.7890625 20.87304688 C3.17839731 20.88251242 1.56771715 20.88974683 -0.04296875 20.89453125 C-0.79520721 20.91406357 -1.54744568 20.93359589 -2.32247925 20.95372009 C-6.35378279 20.91924473 -8.08987846 20.5080173 -11.25439453 17.92602539 C-14.22715052 14.16344268 -14.77213075 12.1437024 -14.30078125 7.3359375 C-10.36269447 1.36090928 -6.89602087 0.02232359 0 0 Z " fill="#FEFBFC" transform="translate(308.30078125,191.6640625)"/>
<path d="M0 0 C0.7139946 -0.0066568 1.4279892 -0.0133136 2.16362 -0.02017212 C3.67407662 -0.03029067 5.18457788 -0.03498938 6.69506836 -0.03466797 C8.99343703 -0.03902782 11.28986341 -0.07531363 13.58789062 -0.11328125 C15.05858722 -0.11915253 16.52929289 -0.12311984 18 -0.125 C18.68145584 -0.13937103 19.36291168 -0.15374207 20.0650177 -0.16854858 C25.0546578 -0.12135372 27.86513104 1.20536186 31.69921875 4.3359375 C34.03831182 7.8445771 34.11212932 9.20683183 33.69921875 13.3359375 C32.47942244 16.01948939 31.51993437 17.7689314 29.08178711 19.45336914 C25.69850832 20.70662796 22.39127151 20.68082893 18.828125 20.70703125 C18.06878159 20.71605972 17.30943817 20.7250882 16.52708435 20.73439026 C14.92426482 20.74886883 13.32138651 20.75777355 11.71850586 20.76147461 C9.2729102 20.77338301 6.82982999 20.82259512 4.38476562 20.87304688 C2.82423101 20.88251073 1.26368097 20.88974595 -0.296875 20.89453125 C-1.02410263 20.91406357 -1.75133026 20.93359589 -2.50059509 20.95372009 C-6.47340576 20.91859595 -8.12621046 20.47914271 -11.23852539 17.92602539 C-14.23096713 14.1676716 -14.7728643 12.15118458 -14.30078125 7.3359375 C-10.36269447 1.36090928 -6.89602087 0.02232359 0 0 Z " fill="#FEFBFC" transform="translate(184.30078125,191.6640625)"/>
<path d="M0 0 C9.57 0 19.14 0 29 0 C29 7.59 29 15.18 29 23 C19.43 23 9.86 23 0 23 C0 15.41 0 7.82 0 0 Z " fill="#BC9AF4" transform="translate(315,253)"/>
<path d="M0 0 C9.57 0 19.14 0 29 0 C29 7.59 29 15.18 29 23 C19.43 23 9.86 23 0 23 C0 15.41 0 7.82 0 0 Z " fill="#BC9AF4" transform="translate(168,253)"/>
<path d="M0 0 C2.08218362 -0.10832169 4.16599129 -0.18573541 6.25 -0.25 C7.99023438 -0.31960937 7.99023438 -0.31960937 9.765625 -0.390625 C13 0 13 0 15.3828125 1.39453125 C17.89101019 5.43551642 17.65848892 9.27249338 17.625 13.9375 C17.65722656 14.83146484 17.68945312 15.72542969 17.72265625 16.64648438 C17.73202197 22.9542965 17.73202197 22.9542965 15.78930664 25.72949219 C13.53044487 27.76416454 11.45227776 28.90603842 8.48046875 29.5234375 C7.72378906 29.47445312 6.96710938 29.42546875 6.1875 29.375 C5.41792969 29.34148437 4.64835937 29.30796875 3.85546875 29.2734375 C2 29 2 29 1 28 C-0.10342754 18.69579002 -0.12794439 9.35415659 0 0 Z " fill="#64C8CE" transform="translate(357,123)"/>
<path d="M0 0 C1.17046875 0.03609375 2.3409375 0.0721875 3.546875 0.109375 C4.43890625 0.15578125 5.3309375 0.2021875 6.25 0.25 C6.37794439 9.60415659 6.35342754 18.94579002 5.25 28.25 C3.70016739 29.79983261 2.21331622 29.53132961 0.0625 29.625 C-1.07251953 29.69847656 -1.07251953 29.69847656 -2.23046875 29.7734375 C-5.99788048 28.99075041 -8.56726346 27.3680693 -10.75 24.25 C-11.57304942 20.86862316 -11.49982487 17.65014182 -11.375 14.1875 C-11.38144531 13.28966797 -11.38789063 12.39183594 -11.39453125 11.46679688 C-11.33069858 7.56429969 -11.21531404 4.99967263 -9.1328125 1.64453125 C-5.93398714 -0.22756818 -3.68126669 -0.14725067 0 0 Z " fill="#269FC9" transform="translate(148.75,122.75)"/>
</g>
</svg>
